<svg id="visual" viewBox="0 0 500 500" width="500" height="500" xmlns="http://www.w3.org/2000/svg" xmlns:xlink="http://www.w3.org/1999/xlink" version="1.1"><g transform="translate(276.44783446148955 233.61477368743533)"><path d="M122.7 -169.3C151.4 -148.1 161.8 -102 163 -61.6C164.3 -21.2 156.5 13.5 147.9 50.6C139.4 87.7 130.3 127.2 105.5 158.2C80.7 189.1 40.4 211.6 -4.3 217.5C-49 223.4 -98 212.8 -137.3 186.6C-176.6 160.4 -206.2 118.5 -213.9 74.3C-221.6 30.2 -207.3 -16.3 -190.2 -59.5C-173 -102.8 -152.9 -142.8 -120.7 -162.8C-88.6 -182.9 -44.3 -182.9 1.4 -184.8C47 -186.7 94 -190.4 122.7 -169.3" fill="none" stroke="#4db5ff" stroke-width="6"></path></g></svg>