<?xml version="1.0" encoding="utf-8"?>
<!-- Generator: Adobe Illustrator 26.0.3, SVG Export Plug-In . SVG Version: 6.00 Build 0)  -->
<svg version="1.1" id="Layer_1" xmlns="http://www.w3.org/2000/svg" xmlns:xlink="http://www.w3.org/1999/xlink" x="0px" y="0px"
	 viewBox="0 0 321.8 379.3" style="enable-background:new 0 0 321.8 379.3;" xml:space="preserve">
<style type="text/css">
	.st0{fill:url(#SVGID_1_);}
</style>
<linearGradient id="SVGID_1_" gradientUnits="userSpaceOnUse" x1="247.0635" y1="625.5057" x2="117.3725" y2="-62.8542">
	<stop  offset="8.901767e-02" style="stop-color:#4396D5"/>
	<stop  offset="0.9641" style="stop-color:#D2F4FB"/>
</linearGradient>
<path class="st0" d="M321.8,84.1c-0.9-45.7-38.1-83-83.7-84.1c-48.4-1.2-88,37.7-88,85.9c0,2.8,0.1,5.6,0.4,8.3
	c1,10-6.9,18.7-17,18.7l-0.2,0C59.6,112.9,0,172.5,0,246.1c0,73.5,59.7,133.2,133.2,133.2c73.6,0,133.2-59.6,133.2-133.2
	c0-8.9-0.9-17.6-2.5-26c-5-25.1,5-50.8,25.1-66.6C309.4,137.4,322.4,112.3,321.8,84.1z"/>
</svg>
