<svg id="visual" viewBox="0 0 900 600" width="900" height="600" xmlns="http://www.w3.org/2000/svg" xmlns:xlink="http://www.w3.org/1999/xlink" version="1.1"><g transform="translate(371.09546768430215 328.61466373727615)"><path d="M115.9 -136.6C163.7 -98 225.1 -74.3 251.4 -29C277.7 16.3 268.7 83.2 232.8 124.2C196.9 165.2 134 180.3 88.8 160.5C43.7 140.6 16.2 85.8 -22.4 68.7C-60.9 51.5 -110.6 72 -108.7 66.8C-106.8 61.7 -53.4 30.8 -41.8 -2.6C-30.2 -36 -60.4 -72 -60.4 -119C-60.4 -166 -30.2 -224 1.9 -226.3C34.1 -228.6 68.1 -175.2 115.9 -136.6" fill="none" stroke="#4f4f4f" stroke-width="6"></path></g></svg>