<svg id="visual" viewBox="0 0 1500 600" width="1500" height="600" xmlns="http://www.w3.org/2000/svg" xmlns:xlink="http://www.w3.org/1999/xlink" version="1.1"><path d="M0 331L35.7 339.5C71.3 348 142.7 365 214.2 386.3C285.7 407.7 357.3 433.3 428.8 424.8C500.3 416.3 571.7 373.7 643 363.8C714.3 354 785.7 377 857 379.3C928.3 381.7 999.7 363.3 1071.2 362.8C1142.7 362.3 1214.3 379.7 1285.8 399.3C1357.3 419 1428.7 441 1464.3 452L1500 463L1500 601L1464.3 601C1428.7 601 1357.3 601 1285.8 601C1214.3 601 1142.7 601 1071.2 601C999.7 601 928.3 601 857 601C785.7 601 714.3 601 643 601C571.7 601 500.3 601 428.8 601C357.3 601 285.7 601 214.2 601C142.7 601 71.3 601 35.7 601L0 601Z" fill="#24a4ff"></path><path d="M0 457L35.7 453.7C71.3 450.3 142.7 443.7 214.2 437.7C285.7 431.7 357.3 426.3 428.8 417.7C500.3 409 571.7 397 643 393.8C714.3 390.7 785.7 396.3 857 414C928.3 431.7 999.7 461.3 1071.2 458.3C1142.7 455.3 1214.3 419.7 1285.8 402.3C1357.3 385 1428.7 386 1464.3 386.5L1500 387L1500 601L1464.3 601C1428.7 601 1357.3 601 1285.8 601C1214.3 601 1142.7 601 1071.2 601C999.7 601 928.3 601 857 601C785.7 601 714.3 601 643 601C571.7 601 500.3 601 428.8 601C357.3 601 285.7 601 214.2 601C142.7 601 71.3 601 35.7 601L0 601Z" fill="#0089f5"></path><path d="M0 470L35.7 478.5C71.3 487 142.7 504 214.2 498.2C285.7 492.3 357.3 463.7 428.8 459.8C500.3 456 571.7 477 643 475.8C714.3 474.7 785.7 451.3 857 447C928.3 442.7 999.7 457.3 1071.2 460C1142.7 462.7 1214.3 453.3 1285.8 461.2C1357.3 469 1428.7 494 1464.3 506.5L1500 519L1500 601L1464.3 601C1428.7 601 1357.3 601 1285.8 601C1214.3 601 1142.7 601 1071.2 601C999.7 601 928.3 601 857 601C785.7 601 714.3 601 643 601C571.7 601 500.3 601 428.8 601C357.3 601 285.7 601 214.2 601C142.7 601 71.3 601 35.7 601L0 601Z" fill="#006de8"></path><path d="M0 535L35.7 531.8C71.3 528.7 142.7 522.3 214.2 515.3C285.7 508.3 357.3 500.7 428.8 505.2C500.3 509.7 571.7 526.3 643 523C714.3 519.7 785.7 496.3 857 495.2C928.3 494 999.7 515 1071.2 515.5C1142.7 516 1214.3 496 1285.8 497.3C1357.3 498.7 1428.7 521.3 1464.3 532.7L1500 544L1500 601L1464.3 601C1428.7 601 1357.3 601 1285.8 601C1214.3 601 1142.7 601 1071.2 601C999.7 601 928.3 601 857 601C785.7 601 714.3 601 643 601C571.7 601 500.3 601 428.8 601C357.3 601 285.7 601 214.2 601C142.7 601 71.3 601 35.7 601L0 601Z" fill="#134fd7"></path><path d="M0 565L35.7 563.2C71.3 561.3 142.7 557.7 214.2 551.3C285.7 545 357.3 536 428.8 538.3C500.3 540.7 571.7 554.3 643 554.2C714.3 554 785.7 540 857 542C928.3 544 999.7 562 1071.2 561.2C1142.7 560.3 1214.3 540.7 1285.8 538.8C1357.3 537 1428.7 553 1464.3 561L1500 569L1500 601L1464.3 601C1428.7 601 1357.3 601 1285.8 601C1214.3 601 1142.7 601 1071.2 601C999.7 601 928.3 601 857 601C785.7 601 714.3 601 643 601C571.7 601 500.3 601 428.8 601C357.3 601 285.7 601 214.2 601C142.7 601 71.3 601 35.7 601L0 601Z" fill="#2c2cc1"></path></svg>